<svg xmlns="http://www.w3.org/2000/svg" xmlns:xlink="http://www.w3.org/1999/xlink" width="500" zoomAndPan="magnify" viewBox="0 0 375 374.999991" height="500" preserveAspectRatio="xMidYMid meet" version="1.0"><defs><g/><clipPath id="7c15eb4fe2"><path d="M 98.324219 61.671875 L 276.824219 61.671875 L 276.824219 240.171875 L 98.324219 240.171875 Z M 98.324219 61.671875 " clip-rule="nonzero"/></clipPath><clipPath id="c271a8216a"><path d="M 129 99 L 246 99 L 246 267 L 129 267 Z M 129 99 " clip-rule="nonzero"/></clipPath><clipPath id="9a47645a8d"><path d="M 191.992188 56.765625 L 300.230469 184.269531 L 178.445312 287.652344 L 70.207031 160.148438 Z M 191.992188 56.765625 " clip-rule="nonzero"/></clipPath><clipPath id="51adc0c570"><path d="M 192.066406 56.703125 L 300.304688 184.207031 L 177.945312 288.074219 L 69.710938 160.574219 Z M 192.066406 56.703125 " clip-rule="nonzero"/></clipPath></defs><rect x="-37.5" width="450" fill="#ffffff" y="-37.499999" height="449.999989" fill-opacity="1"/><rect x="-37.5" width="450" fill="#ffffff" y="-37.499999" height="449.999989" fill-opacity="1"/><g clip-path="url(#7c15eb4fe2)"><path fill="#0047ab" d="M 276.671875 150.847656 C 276.671875 152.308594 276.636719 153.765625 276.566406 155.222656 C 276.492188 156.679688 276.386719 158.136719 276.242188 159.589844 C 276.097656 161.039062 275.921875 162.488281 275.707031 163.933594 C 275.492188 165.375 275.242188 166.8125 274.957031 168.246094 C 274.671875 169.675781 274.355469 171.097656 274 172.515625 C 273.644531 173.929688 273.253906 175.335938 272.832031 176.734375 C 272.410156 178.128906 271.949219 179.515625 271.460938 180.890625 C 270.96875 182.261719 270.441406 183.625 269.882812 184.972656 C 269.324219 186.320312 268.734375 187.65625 268.109375 188.972656 C 267.484375 190.292969 266.832031 191.597656 266.140625 192.882812 C 265.453125 194.171875 264.734375 195.441406 263.984375 196.691406 C 263.234375 197.945312 262.453125 199.175781 261.644531 200.390625 C 260.832031 201.601562 259.992188 202.796875 259.125 203.96875 C 258.253906 205.140625 257.355469 206.289062 256.429688 207.417969 C 255.503906 208.546875 254.550781 209.652344 253.570312 210.734375 C 252.589844 211.8125 251.585938 212.871094 250.554688 213.902344 C 249.523438 214.933594 248.464844 215.941406 247.382812 216.921875 C 246.300781 217.902344 245.199219 218.855469 244.070312 219.78125 C 242.941406 220.707031 241.792969 221.601562 240.617188 222.472656 C 239.445312 223.34375 238.253906 224.183594 237.039062 224.992188 C 235.828125 225.804688 234.59375 226.585938 233.34375 227.335938 C 232.089844 228.085938 230.820312 228.804688 229.535156 229.492188 C 228.246094 230.179688 226.945312 230.835938 225.625 231.460938 C 224.304688 232.082031 222.972656 232.675781 221.625 233.234375 C 220.273438 233.792969 218.914062 234.316406 217.539062 234.808594 C 216.164062 235.300781 214.78125 235.757812 213.382812 236.179688 C 211.988281 236.605469 210.582031 236.996094 209.164062 237.347656 C 207.75 237.703125 206.328125 238.023438 204.894531 238.308594 C 203.464844 238.59375 202.027344 238.84375 200.582031 239.054688 C 199.140625 239.269531 197.691406 239.449219 196.238281 239.59375 C 194.785156 239.734375 193.332031 239.84375 191.875 239.914062 C 190.417969 239.984375 188.957031 240.019531 187.5 240.019531 C 186.039062 240.019531 184.582031 239.984375 183.121094 239.914062 C 181.664062 239.84375 180.210938 239.734375 178.757812 239.59375 C 177.304688 239.449219 175.855469 239.269531 174.414062 239.054688 C 172.96875 238.84375 171.53125 238.59375 170.101562 238.308594 C 168.667969 238.023438 167.246094 237.703125 165.832031 237.347656 C 164.414062 236.996094 163.007812 236.605469 161.613281 236.179688 C 160.214844 235.757812 158.832031 235.300781 157.457031 234.808594 C 156.082031 234.316406 154.722656 233.792969 153.371094 233.234375 C 152.023438 232.675781 150.691406 232.082031 149.371094 231.460938 C 148.050781 230.835938 146.75 230.179688 145.460938 229.492188 C 144.175781 228.804688 142.90625 228.085938 141.652344 227.335938 C 140.402344 226.585938 139.167969 225.804688 137.957031 224.992188 C 136.742188 224.183594 135.550781 223.34375 134.378906 222.472656 C 133.207031 221.601562 132.054688 220.707031 130.925781 219.78125 C 129.796875 218.855469 128.695312 217.902344 127.613281 216.921875 C 126.53125 215.941406 125.476562 214.933594 124.441406 213.902344 C 123.410156 212.871094 122.40625 211.8125 121.425781 210.734375 C 120.445312 209.652344 119.492188 208.546875 118.566406 207.417969 C 117.640625 206.289062 116.742188 205.140625 115.871094 203.96875 C 115.003906 202.796875 114.164062 201.601562 113.351562 200.390625 C 112.542969 199.175781 111.761719 197.945312 111.011719 196.691406 C 110.261719 195.441406 109.542969 194.171875 108.855469 192.882812 C 108.164062 191.597656 107.511719 190.292969 106.886719 188.972656 C 106.261719 187.65625 105.671875 186.320312 105.113281 184.972656 C 104.554688 183.625 104.027344 182.261719 103.535156 180.890625 C 103.046875 179.515625 102.585938 178.128906 102.164062 176.734375 C 101.742188 175.335938 101.351562 173.929688 100.996094 172.515625 C 100.640625 171.097656 100.324219 169.675781 100.039062 168.246094 C 99.753906 166.8125 99.503906 165.375 99.289062 163.933594 C 99.074219 162.488281 98.898438 161.039062 98.753906 159.589844 C 98.609375 158.136719 98.503906 156.679688 98.433594 155.222656 C 98.359375 153.765625 98.324219 152.308594 98.324219 150.847656 C 98.324219 149.386719 98.359375 147.929688 98.433594 146.472656 C 98.503906 145.015625 98.609375 143.558594 98.753906 142.105469 C 98.898438 140.65625 99.074219 139.207031 99.289062 137.761719 C 99.503906 136.320312 99.753906 134.882812 100.039062 133.449219 C 100.324219 132.019531 100.640625 130.597656 100.996094 129.179688 C 101.351562 127.765625 101.742188 126.359375 102.164062 124.960938 C 102.585938 123.566406 103.046875 122.179688 103.535156 120.804688 C 104.027344 119.433594 104.554688 118.070312 105.113281 116.722656 C 105.671875 115.375 106.261719 114.039062 106.886719 112.722656 C 107.511719 111.402344 108.164062 110.097656 108.855469 108.8125 C 109.542969 107.523438 110.261719 106.253906 111.011719 105.003906 C 111.761719 103.75 112.542969 102.519531 113.351562 101.304688 C 114.164062 100.09375 115.003906 98.898438 115.871094 97.726562 C 116.742188 96.554688 117.640625 95.40625 118.566406 94.277344 C 119.492188 93.148438 120.445312 92.042969 121.425781 90.960938 C 122.40625 89.878906 123.410156 88.824219 124.441406 87.792969 C 125.476562 86.761719 126.53125 85.753906 127.613281 84.773438 C 128.695312 83.792969 129.796875 82.839844 130.925781 81.914062 C 132.054688 80.988281 133.207031 80.09375 134.378906 79.222656 C 135.550781 78.351562 136.742188 77.511719 137.957031 76.703125 C 139.167969 75.890625 140.402344 75.109375 141.652344 74.359375 C 142.90625 73.609375 144.175781 72.890625 145.460938 72.203125 C 146.75 71.515625 148.050781 70.859375 149.371094 70.234375 C 150.691406 69.613281 152.023438 69.019531 153.371094 68.460938 C 154.722656 67.902344 156.082031 67.378906 157.457031 66.886719 C 158.832031 66.394531 160.214844 65.9375 161.613281 65.511719 C 163.007812 65.089844 164.414062 64.699219 165.832031 64.347656 C 167.246094 63.992188 168.667969 63.671875 170.101562 63.386719 C 171.53125 63.101562 172.96875 62.851562 174.414062 62.640625 C 175.855469 62.425781 177.304688 62.246094 178.757812 62.101562 C 180.210938 61.960938 181.664062 61.851562 183.121094 61.78125 C 184.582031 61.710938 186.039062 61.671875 187.5 61.671875 C 188.957031 61.671875 190.417969 61.710938 191.875 61.78125 C 193.332031 61.851562 194.785156 61.960938 196.238281 62.101562 C 197.691406 62.246094 199.140625 62.425781 200.582031 62.640625 C 202.027344 62.851562 203.464844 63.101562 204.894531 63.386719 C 206.328125 63.671875 207.75 63.992188 209.164062 64.347656 C 210.582031 64.699219 211.988281 65.089844 213.382812 65.511719 C 214.78125 65.9375 216.164062 66.394531 217.539062 66.886719 C 218.914062 67.378906 220.273438 67.902344 221.625 68.460938 C 222.972656 69.019531 224.304688 69.613281 225.625 70.234375 C 226.945312 70.859375 228.246094 71.515625 229.535156 72.203125 C 230.820312 72.890625 232.089844 73.609375 233.34375 74.359375 C 234.59375 75.109375 235.828125 75.890625 237.039062 76.703125 C 238.253906 77.511719 239.445312 78.351562 240.617188 79.222656 C 241.792969 80.09375 242.941406 80.988281 244.070312 81.914062 C 245.199219 82.839844 246.300781 83.792969 247.382812 84.773438 C 248.464844 85.753906 249.523438 86.761719 250.554688 87.792969 C 251.585938 88.824219 252.589844 89.878906 253.570312 90.960938 C 254.550781 92.042969 255.503906 93.148438 256.429688 94.277344 C 257.355469 95.40625 258.253906 96.554688 259.125 97.726562 C 259.992188 98.898438 260.832031 100.09375 261.644531 101.304688 C 262.453125 102.519531 263.234375 103.75 263.984375 105.003906 C 264.734375 106.253906 265.453125 107.523438 266.140625 108.8125 C 266.832031 110.097656 267.484375 111.402344 268.109375 112.722656 C 268.734375 114.039062 269.324219 115.375 269.882812 116.722656 C 270.441406 118.070312 270.96875 119.433594 271.460938 120.804688 C 271.949219 122.179688 272.410156 123.566406 272.832031 124.960938 C 273.253906 126.359375 273.644531 127.765625 274 129.179688 C 274.355469 130.597656 274.671875 132.019531 274.957031 133.449219 C 275.242188 134.882812 275.492188 136.320312 275.707031 137.761719 C 275.921875 139.207031 276.097656 140.65625 276.242188 142.105469 C 276.386719 143.558594 276.492188 145.015625 276.566406 146.472656 C 276.636719 147.929688 276.671875 149.386719 276.671875 150.847656 Z M 276.671875 150.847656 " fill-opacity="1" fill-rule="nonzero"/></g><g clip-path="url(#c271a8216a)"><g clip-path="url(#9a47645a8d)"><g clip-path="url(#51adc0c570)"><path fill="#ffffff" d="M 206.191406 264.542969 C 169.015625 277.03125 151.140625 233.183594 151.140625 233.183594 C 151.140625 233.183594 182.535156 214.070312 190.398438 195.230469 C 190.402344 195.210938 190.414062 195.183594 190.425781 195.160156 C 192.066406 191.128906 191.699219 187.429688 190.609375 184.261719 C 198.050781 195.714844 195.808594 212.472656 195.734375 213.03125 C 206.765625 178.921875 179.5 170.671875 179.5 170.671875 C 174.734375 168.414062 170.082031 166.023438 165.625 163.386719 C 158.441406 159.136719 151.679688 154.375 145.777344 148.800781 C 141.933594 145.164062 138.449219 141.179688 135.609375 136.699219 C 128.6875 125.78125 129.210938 117.332031 129.691406 114.414062 C 129.707031 114.328125 129.71875 114.257812 129.730469 114.183594 C 129.738281 114.136719 129.75 114.085938 129.761719 114.042969 C 129.777344 113.960938 129.789062 113.890625 129.804688 113.824219 C 129.835938 113.710938 129.859375 113.597656 129.878906 113.5 C 129.886719 113.464844 129.894531 113.429688 129.902344 113.402344 C 129.917969 113.34375 129.925781 113.316406 129.925781 113.316406 C 131 108.839844 133.011719 106.84375 133.980469 110.640625 C 136.515625 120.601562 142.039062 123.386719 162.796875 122.257812 C 183.554688 121.132812 206.445312 145.773438 206.445312 145.773438 C 202.949219 130.957031 217.101562 119.71875 221.4375 113.199219 C 225.777344 106.679688 218.019531 99.867188 218.019531 99.867188 C 218.019531 99.867188 225.867188 96.554688 240.9375 122.679688 C 252.6875 143.050781 236.503906 172.097656 228.808594 183.898438 C 223.363281 165.179688 209.90625 161.835938 209.90625 161.835938 C 227.121094 173.984375 226.472656 200.730469 225.863281 208.65625 C 225.863281 208.671875 225.863281 208.683594 225.859375 208.699219 C 225.804688 209.40625 225.738281 210.117188 225.65625 210.832031 C 225.648438 210.886719 225.644531 210.910156 225.644531 210.910156 C 222.507812 239.742188 206.191406 264.542969 206.191406 264.542969 " fill-opacity="1" fill-rule="nonzero"/></g></g></g><g fill="#0047ab" fill-opacity="1"><g transform="translate(55.734376, 279.880513)"><g><path d="M 16.90625 0 L 15.75 -4.390625 L 8.140625 -4.390625 L 6.953125 0 L 0 0 L 7.640625 -23.515625 L 16.078125 -23.515625 L 23.828125 0 Z M 14.4375 -9.578125 L 13.421875 -13.421875 C 13.191406 -14.273438 12.90625 -15.378906 12.5625 -16.734375 C 12.226562 -18.097656 12.007812 -19.070312 11.90625 -19.65625 C 11.8125 -19.113281 11.617188 -18.21875 11.328125 -16.96875 C 11.046875 -15.71875 10.421875 -13.253906 9.453125 -9.578125 Z M 14.4375 -9.578125 "/></g></g></g><g fill="#0047ab" fill-opacity="1"><g transform="translate(79.558685, 279.880513)"><g><path d="M 24.828125 0 L 16.53125 0 L 7.984375 -16.5 L 7.828125 -16.5 C 8.035156 -13.90625 8.140625 -11.925781 8.140625 -10.5625 L 8.140625 0 L 2.53125 0 L 2.53125 -23.421875 L 10.796875 -23.421875 L 19.328125 -7.140625 L 19.421875 -7.140625 C 19.265625 -9.503906 19.1875 -11.398438 19.1875 -12.828125 L 19.1875 -23.421875 L 24.828125 -23.421875 Z M 24.828125 0 "/></g></g></g><g fill="#0047ab" fill-opacity="1"><g transform="translate(106.923795, 279.880513)"><g><path d="M 2.53125 0 L 2.53125 -23.421875 L 8.890625 -23.421875 L 8.890625 0 Z M 2.53125 0 "/></g></g></g><g fill="#0047ab" fill-opacity="1"><g transform="translate(118.347286, 279.880513)"><g><path d="M 12.734375 0 L 7.953125 -16.875 L 7.796875 -16.875 C 8.023438 -14 8.140625 -11.765625 8.140625 -10.171875 L 8.140625 0 L 2.53125 0 L 2.53125 -23.421875 L 10.953125 -23.421875 L 15.84375 -6.796875 L 15.96875 -6.796875 L 20.765625 -23.421875 L 29.203125 -23.421875 L 29.203125 0 L 23.390625 0 L 23.390625 -10.265625 C 23.390625 -10.804688 23.394531 -11.398438 23.40625 -12.046875 C 23.425781 -12.703125 23.5 -14.300781 23.625 -16.84375 L 23.484375 -16.84375 L 18.765625 0 Z M 12.734375 0 "/></g></g></g><g fill="#0047ab" fill-opacity="1"><g transform="translate(150.070307, 279.880513)"><g><path d="M 16.90625 0 L 15.75 -4.390625 L 8.140625 -4.390625 L 6.953125 0 L 0 0 L 7.640625 -23.515625 L 16.078125 -23.515625 L 23.828125 0 Z M 14.4375 -9.578125 L 13.421875 -13.421875 C 13.191406 -14.273438 12.90625 -15.378906 12.5625 -16.734375 C 12.226562 -18.097656 12.007812 -19.070312 11.90625 -19.65625 C 11.8125 -19.113281 11.617188 -18.21875 11.328125 -16.96875 C 11.046875 -15.71875 10.421875 -13.253906 9.453125 -9.578125 Z M 14.4375 -9.578125 "/></g></g></g><g fill="#0047ab" fill-opacity="1"><g transform="translate(173.894615, 279.880513)"><g><path d="M 2.53125 0 L 2.53125 -23.421875 L 8.859375 -23.421875 L 8.859375 -5.109375 L 17.875 -5.109375 L 17.875 0 Z M 2.53125 0 "/></g></g></g><g fill="#0047ab" fill-opacity="1"><g transform="translate(192.992514, 279.880513)"><g><path d="M 12.96875 -18.5625 C 11.457031 -18.5625 10.28125 -17.945312 9.4375 -16.71875 C 8.59375 -15.488281 8.171875 -13.785156 8.171875 -11.609375 C 8.171875 -7.109375 9.882812 -4.859375 13.3125 -4.859375 C 14.351562 -4.859375 15.359375 -5 16.328125 -5.28125 C 17.296875 -5.570312 18.273438 -5.921875 19.265625 -6.328125 L 19.265625 -0.984375 C 17.304688 -0.109375 15.09375 0.328125 12.625 0.328125 C 9.09375 0.328125 6.382812 -0.695312 4.5 -2.75 C 2.613281 -4.800781 1.671875 -7.765625 1.671875 -11.640625 C 1.671875 -14.066406 2.125 -16.195312 3.03125 -18.03125 C 3.945312 -19.875 5.257812 -21.289062 6.96875 -22.28125 C 8.6875 -23.269531 10.707031 -23.765625 13.03125 -23.765625 C 15.5625 -23.765625 17.976562 -23.210938 20.28125 -22.109375 L 18.34375 -17.125 C 17.476562 -17.53125 16.613281 -17.867188 15.75 -18.140625 C 14.882812 -18.421875 13.957031 -18.5625 12.96875 -18.5625 Z M 12.96875 -18.5625 "/></g></g></g><g fill="#0047ab" fill-opacity="1"><g transform="translate(214.28539, 279.880513)"><g><path d="M 16.4375 0 L 2.53125 0 L 2.53125 -23.421875 L 16.4375 -23.421875 L 16.4375 -18.34375 L 8.859375 -18.34375 L 8.859375 -14.65625 L 15.875 -14.65625 L 15.875 -9.578125 L 8.859375 -9.578125 L 8.859375 -5.15625 L 16.4375 -5.15625 Z M 16.4375 0 "/></g></g></g><g fill="#0047ab" fill-opacity="1"><g transform="translate(232.293811, 279.880513)"><g><path d="M 24.828125 0 L 16.53125 0 L 7.984375 -16.5 L 7.828125 -16.5 C 8.035156 -13.90625 8.140625 -11.925781 8.140625 -10.5625 L 8.140625 0 L 2.53125 0 L 2.53125 -23.421875 L 10.796875 -23.421875 L 19.328125 -7.140625 L 19.421875 -7.140625 C 19.265625 -9.503906 19.1875 -11.398438 19.1875 -12.828125 L 19.1875 -23.421875 L 24.828125 -23.421875 Z M 24.828125 0 "/></g></g></g><g fill="#0047ab" fill-opacity="1"><g transform="translate(259.658922, 279.880513)"><g><path d="M 12.859375 0 L 6.53125 0 L 6.53125 -18.25 L 0.8125 -18.25 L 0.8125 -23.421875 L 18.5625 -23.421875 L 18.5625 -18.25 L 12.859375 -18.25 Z M 12.859375 0 "/></g></g></g><g fill="#0047ab" fill-opacity="1"><g transform="translate(279.045212, 279.880513)"><g><path d="M 8.859375 -8.53125 L 8.859375 0 L 2.53125 0 L 2.53125 -23.421875 L 10.203125 -23.421875 C 16.566406 -23.421875 19.75 -21.113281 19.75 -16.5 C 19.75 -13.789062 18.425781 -11.691406 15.78125 -10.203125 L 22.609375 0 L 15.421875 0 L 10.46875 -8.53125 Z M 8.859375 -13.28125 L 10.046875 -13.28125 C 12.253906 -13.28125 13.359375 -14.257812 13.359375 -16.21875 C 13.359375 -17.832031 12.273438 -18.640625 10.109375 -18.640625 L 8.859375 -18.640625 Z M 8.859375 -13.28125 "/></g></g></g><g fill="#0047ab" fill-opacity="1"><g transform="translate(301.251326, 279.880513)"><g><path d="M 16.4375 0 L 2.53125 0 L 2.53125 -23.421875 L 16.4375 -23.421875 L 16.4375 -18.34375 L 8.859375 -18.34375 L 8.859375 -14.65625 L 15.875 -14.65625 L 15.875 -9.578125 L 8.859375 -9.578125 L 8.859375 -5.15625 L 16.4375 -5.15625 Z M 16.4375 0 "/></g></g></g></svg>