<svg xmlns="http://www.w3.org/2000/svg" xmlns:xlink="http://www.w3.org/1999/xlink" width="500" zoomAndPan="magnify" viewBox="0 0 375 374.999991" height="500" preserveAspectRatio="xMidYMid meet" version="1.0"><defs><g/><clipPath id="9dbedf87fc"><path d="M 161 236 L 213 236 L 213 286.375 L 161 286.375 Z M 161 236 " clip-rule="nonzero"/></clipPath><clipPath id="1355e0eec5"><path d="M 74 32.125 L 169 32.125 L 169 244 L 74 244 Z M 74 32.125 " clip-rule="nonzero"/></clipPath></defs><rect x="-37.5" width="450" fill="#ffffff" y="-37.499999" height="449.999989" fill-opacity="1"/><rect x="-37.5" width="450" fill="#ffffff" y="-37.499999" height="449.999989" fill-opacity="1"/><path fill="#008455" d="M 274.238281 90.9375 C 274.238281 90.9375 266.414062 92.632812 260.359375 95.292969 C 260.359375 95.292969 257.925781 96.621094 253.867188 93.667969 C 249.808594 90.714844 243.164062 86.359375 231.726562 87.097656 C 231.726562 87.097656 231.726562 80.675781 225.230469 76.839844 C 225.230469 76.839844 225.820312 81.859375 224.9375 83.703125 C 224.9375 83.703125 223.828125 79.644531 221.023438 77.355469 C 221.023438 77.355469 222.351562 90.640625 217.261719 96.101562 C 212.167969 101.566406 207.519531 118.539062 206.335938 135.367188 C 206.335938 135.367188 205.75 141.566406 201.6875 145.480469 C 197.628906 149.390625 193.9375 156.03125 193.9375 156.03125 C 193.9375 156.03125 191.132812 161.9375 183.753906 167.472656 C 176.371094 173.003906 142.867188 204.445312 131.945312 257.585938 C 131.945312 257.585938 130.433594 270.210938 119.210938 266.21875 C 117.964844 265.773438 116.867188 264.96875 116.144531 263.867188 C 115.316406 262.601562 114.902344 260.839844 116.886719 259.0625 C 120.628906 255.714844 126.53125 259.554688 126.53125 259.554688 C 126.53125 259.554688 120.722656 244.359375 105.527344 251.363281 C 102.609375 252.710938 100.214844 255.035156 98.953125 257.992188 C 98.0625 260.078125 97.554688 262.769531 98.160156 266.074219 C 99.324219 272.414062 104.023438 277.496094 110.160156 279.476562 C 113.886719 280.675781 119.027344 281.507812 125.9375 281.101562 C 125.9375 281.101562 125.9375 277.953125 134.304688 278.742188 C 134.304688 278.742188 141.683594 278.445312 144.441406 276.773438 C 144.441406 276.773438 149.554688 274.902344 150.640625 278.742188 C 150.640625 278.742188 160.085938 278.9375 158.316406 268.113281 C 156.542969 257.289062 165.054688 225.109375 189.757812 215.589844 C 189.757812 215.589844 201.613281 213.152344 200.730469 200.605469 C 200.730469 200.605469 198.734375 193.226562 198.882812 190.570312 C 198.882812 190.570312 195.195312 188.5 194.234375 180.679688 C 194.234375 180.679688 199.03125 179.941406 203.3125 183.117188 C 203.3125 183.117188 205.601562 184.148438 207.667969 182.378906 C 209.734375 180.605469 216.894531 177.359375 220.65625 179.648438 C 220.65625 179.648438 222.28125 180.605469 224.125 180.125 C 224.125 180.125 226.300781 178.910156 227.261719 181.160156 C 227.261719 181.160156 227.964844 183.117188 228.59375 184.40625 C 229.21875 185.699219 229.585938 189.242188 226.082031 193.558594 C 226.082031 193.558594 224.351562 195.183594 224.867188 199.132812 C 225.382812 203.078125 232.320312 230.867188 219.773438 245.480469 C 219.773438 245.480469 218.296875 247.152344 220.660156 252.515625 C 220.660156 252.515625 222.234375 257.140625 221.839844 262.40625 C 221.839844 262.40625 221.546875 264.175781 224.152344 267.078125 C 224.152344 267.078125 229.957031 276.082031 233.402344 282.429688 C 233.402344 282.429688 235.171875 285.925781 239.601562 285.777344 C 244.03125 285.628906 251.066406 284.890625 252.933594 284.054688 C 254.804688 283.21875 255.394531 279.628906 251.902344 277.558594 C 248.410156 275.492188 245.652344 275.542969 242.847656 275.394531 C 242.847656 275.394531 240.042969 272.539062 240.09375 270.375 C 240.09375 270.375 246.046875 270.574219 248.015625 268.308594 C 248.015625 268.308594 249.6875 265.0625 238.027344 262.503906 C 238.027344 262.503906 235.566406 261.519531 235.765625 257.433594 C 235.960938 253.351562 234.1875 235.34375 236.257812 227.765625 C 236.257812 227.765625 247.230469 221.863281 251.507812 206.214844 C 251.507812 206.214844 252.6875 200.457031 256.96875 194.113281 C 261.25 187.765625 260.660156 180.382812 260.808594 170.789062 C 260.957031 161.195312 259.851562 139.203125 257.414062 123.261719 C 257.414062 123.261719 256.824219 120.457031 261.25 117.652344 C 265.679688 114.847656 274.832031 109.386719 276.308594 104.664062 C 276.300781 104.664062 281.507812 88.988281 274.238281 90.9375 Z M 274.238281 90.9375 " fill-opacity="1" fill-rule="nonzero"/><g clip-path="url(#9dbedf87fc)"><path fill="#008455" d="M 193.792969 240.316406 C 193.792969 240.316406 188.109375 235.738281 177.554688 237.066406 C 177.554688 237.066406 173.570312 237.214844 179.398438 241.496094 C 185.230469 245.773438 189.363281 247.621094 192.167969 247.988281 C 192.167969 247.988281 192.757812 249.464844 191.578125 250.496094 C 191.578125 250.496094 160.875 248.726562 164.417969 278.542969 C 164.417969 278.542969 158.980469 281.570312 164.132812 281.71875 C 164.132812 281.71875 167.296875 286 174.605469 285.1875 C 174.605469 285.1875 176.484375 284.667969 177.628906 285.78125 C 177.628906 285.78125 178.074219 286.492188 180.3125 286.492188 C 182.550781 286.492188 193.941406 286.664062 196.746094 286.21875 C 196.746094 286.21875 198.371094 286.023438 197.1875 283.808594 C 197.1875 283.808594 196.597656 282.75 197.828125 282.628906 C 197.828125 282.628906 198.8125 282.382812 199.625 283.316406 C 199.625 283.316406 203.042969 284.742188 208.359375 284.300781 C 208.359375 284.300781 210.671875 283.90625 210.179688 282.628906 C 209.6875 281.347656 209.046875 280.804688 208.015625 280.117188 C 206.980469 279.429688 205.40625 276.527344 206.785156 271.707031 C 206.785156 271.707031 211.507812 262.527344 209.8125 253.671875 C 209.8125 253.671875 208.851562 251.199219 209.960938 249.390625 C 209.960938 249.390625 214.644531 245.039062 210.917969 241.972656 C 207.1875 238.910156 202.539062 236.292969 196.15625 240.460938 C 196.152344 240.460938 194.75 241.273438 193.792969 240.316406 Z M 193.792969 240.316406 " fill-opacity="1" fill-rule="nonzero"/></g><path fill="#008455" d="M 72.328125 237.53125 C 72.328125 237.53125 68.496094 239.421875 69.125 244.566406 C 69.125 244.566406 69.652344 248.871094 67.65625 252.230469 C 65.660156 255.589844 67.25 258.789062 69.441406 259.789062 C 71.195312 260.585938 77.289062 262.609375 81.09375 256.640625 C 81.09375 256.640625 82.144531 254.644531 85.292969 254.222656 C 88.441406 253.804688 94.476562 249.066406 92.851562 243.621094 C 92.167969 241.335938 88.753906 240.054688 86.65625 239.820312 C 84.476562 239.578125 82.417969 239.472656 79.519531 237.53125 C 75.988281 235.167969 72.328125 237.53125 72.328125 237.53125 Z M 72.328125 237.53125 " fill-opacity="1" fill-rule="nonzero"/><path fill="#008455" d="M 54.324219 246.136719 C 54.324219 246.136719 55.796875 252.964844 61.570312 253.800781 C 67.34375 254.640625 67.410156 249.183594 66.746094 247.609375 C 66.082031 246.03125 61.148438 242.148438 57.160156 241.625 C 53.167969 241.101562 54.324219 246.136719 54.324219 246.136719 Z M 54.324219 246.136719 " fill-opacity="1" fill-rule="nonzero"/><path fill="#008455" d="M 87.785156 224.976562 C 87.785156 224.976562 93.398438 229.125 91.789062 234.730469 C 90.179688 240.339844 85.175781 238.152344 84.011719 236.902344 C 82.851562 235.652344 81.339844 229.554688 82.503906 225.703125 C 83.664062 221.851562 87.785156 224.976562 87.785156 224.976562 Z M 87.785156 224.976562 " fill-opacity="1" fill-rule="nonzero"/><path fill="#008455" d="M 57.527344 227.292969 C 57.527344 227.292969 53.671875 235.484375 60.597656 240.996094 C 60.597656 240.996094 65.402344 244.199219 67.605469 238.472656 C 68.984375 234.890625 66.1875 231.308594 64.375 228.789062 C 62.566406 226.269531 58.945312 224.144531 57.527344 227.292969 Z M 57.527344 227.292969 " fill-opacity="1" fill-rule="nonzero"/><path fill="#008455" d="M 69.128906 219.925781 C 69.128906 219.925781 78.179688 219.886719 80.25 228.496094 C 80.25 228.496094 81.125 234.203125 75.011719 233.78125 C 71.179688 233.519531 69.113281 229.472656 67.59375 226.765625 C 66.074219 224.058594 65.675781 219.878906 69.128906 219.925781 Z M 69.128906 219.925781 " fill-opacity="1" fill-rule="nonzero"/><path fill="#008455" d="M 302.671875 237.53125 C 302.671875 237.53125 306.503906 239.421875 305.875 244.566406 C 305.875 244.566406 305.347656 248.871094 307.34375 252.230469 C 309.339844 255.589844 307.75 258.789062 305.558594 259.789062 C 303.804688 260.585938 297.710938 262.609375 293.90625 256.640625 C 293.90625 256.640625 292.855469 254.644531 289.707031 254.222656 C 286.558594 253.804688 280.523438 249.066406 282.148438 243.621094 C 282.832031 241.335938 286.246094 240.054688 288.34375 239.820312 C 290.523438 239.578125 292.582031 239.472656 295.480469 237.53125 C 299.007812 235.167969 302.671875 237.53125 302.671875 237.53125 Z M 302.671875 237.53125 " fill-opacity="1" fill-rule="nonzero"/><path fill="#008455" d="M 320.675781 246.136719 C 320.675781 246.136719 319.203125 252.964844 313.429688 253.800781 C 307.65625 254.640625 307.589844 249.183594 308.253906 247.609375 C 308.917969 246.03125 313.847656 242.148438 317.839844 241.625 C 321.828125 241.101562 320.675781 246.136719 320.675781 246.136719 Z M 320.675781 246.136719 " fill-opacity="1" fill-rule="nonzero"/><path fill="#008455" d="M 287.214844 224.976562 C 287.214844 224.976562 281.601562 229.125 283.210938 234.730469 C 284.820312 240.339844 289.824219 238.152344 290.984375 236.902344 C 292.148438 235.652344 293.660156 229.554688 292.496094 225.703125 C 291.332031 221.851562 287.214844 224.976562 287.214844 224.976562 Z M 287.214844 224.976562 " fill-opacity="1" fill-rule="nonzero"/><path fill="#008455" d="M 317.472656 227.292969 C 317.472656 227.292969 321.328125 235.484375 314.398438 240.996094 C 314.398438 240.996094 309.597656 244.199219 307.394531 238.472656 C 306.015625 234.890625 308.8125 231.308594 310.621094 228.789062 C 312.433594 226.269531 316.054688 224.144531 317.472656 227.292969 Z M 317.472656 227.292969 " fill-opacity="1" fill-rule="nonzero"/><path fill="#008455" d="M 305.871094 219.925781 C 305.871094 219.925781 296.820312 219.886719 294.746094 228.496094 C 294.746094 228.496094 293.875 234.203125 299.988281 233.78125 C 303.820312 233.519531 305.886719 229.472656 307.40625 226.765625 C 308.925781 224.058594 309.324219 219.878906 305.871094 219.925781 Z M 305.871094 219.925781 " fill-opacity="1" fill-rule="nonzero"/><g clip-path="url(#1355e0eec5)"><path fill="#008455" d="M 134.804688 229.1875 C 132.949219 233.992188 131.308594 238.878906 129.894531 243.824219 C 96.726562 223.609375 74.578125 187.089844 74.578125 145.402344 C 74.578125 88.957031 115.175781 42 168.765625 32.132812 C 122.46875 45.589844 88.636719 88.320312 88.636719 138.957031 C 88.632812 176.097656 106.835938 208.984375 134.804688 229.1875 Z M 134.804688 229.1875 " fill-opacity="1" fill-rule="nonzero"/></g><path fill="#008455" d="M 283.671875 212.101562 C 272.660156 227.578125 257.921875 240.214844 240.761719 248.703125 C 240.683594 246.800781 240.601562 244.671875 240.558594 242.511719 C 257.289062 235.933594 272.039062 225.417969 283.671875 212.101562 Z M 283.671875 212.101562 " fill-opacity="1" fill-rule="nonzero"/><path fill="#008455" d="M 136.667969 60.675781 C 136.667969 60.675781 141.980469 74.550781 165.007812 82.226562 C 165.007812 82.226562 178.292969 86.066406 181.835938 92.558594 C 181.835938 92.558594 182.589844 65.972656 150.246094 60.679688 C 150.246094 60.679688 167.074219 67.761719 172.976562 78.539062 C 172.976562 78.539062 156.6875 63.941406 136.667969 60.675781 Z M 136.667969 60.675781 " fill-opacity="1" fill-rule="nonzero"/><path fill="#008455" d="M 94.535156 135.648438 C 94.535156 135.648438 98.777344 120.398438 122.433594 109.945312 C 122.433594 109.945312 136.140625 104.542969 139.246094 97.296875 C 139.246094 97.296875 142.710938 125.421875 108.9375 134.285156 C 108.9375 134.285156 126.074219 125.082031 131.257812 113.058594 C 131.257812 113.058594 115.445312 130.175781 94.535156 135.648438 Z M 94.535156 135.648438 " fill-opacity="1" fill-rule="nonzero"/><path fill="#008455" d="M 96.949219 161.148438 C 96.949219 161.148438 101.371094 176.351562 125.144531 186.53125 C 125.144531 186.53125 138.910156 191.773438 142.097656 198.984375 C 142.097656 198.984375 145.242188 170.820312 111.367188 162.347656 C 111.367188 162.347656 128.613281 171.351562 133.929688 183.3125 C 133.929688 183.3125 117.921875 166.378906 96.949219 161.148438 Z M 96.949219 161.148438 " fill-opacity="1" fill-rule="nonzero"/><path fill="#008455" d="M 152.644531 52.847656 C 152.644531 52.847656 161.058594 60.492188 179.433594 57.792969 C 179.433594 57.792969 189.832031 55.835938 194.492188 59.050781 C 194.492188 59.050781 185.839844 40.628906 161.921875 48.164062 C 161.921875 48.164062 175.859375 47.203125 183.605469 52.527344 C 183.605469 52.527344 167.449219 48.171875 152.644531 52.847656 Z M 152.644531 52.847656 " fill-opacity="1" fill-rule="nonzero"/><path fill="#008455" d="M 99.035156 148.269531 C 99.035156 148.269531 106.675781 156.6875 125.226562 155.773438 C 125.226562 155.773438 135.761719 154.824219 140.089844 158.472656 C 140.089844 158.472656 133.253906 139.304688 108.71875 144.5 C 108.71875 144.5 122.683594 144.882812 129.882812 150.929688 C 129.882812 150.929688 114.21875 145.039062 99.035156 148.269531 Z M 99.035156 148.269531 " fill-opacity="1" fill-rule="nonzero"/><g fill="#008455" fill-opacity="1"><g transform="translate(79.463453, 334.903544)"><g><path d="M -2.96875 0 L 7.0625 -30.640625 L 17.4375 -30.640625 L 13.296875 0 L 7.484375 0 L 8.203125 -4.953125 L 4.484375 -4.953125 L 2.984375 0 Z M 6.09375 -9.84375 L 8.875 -9.84375 L 11.09375 -25.4375 L 10.796875 -25.4375 Z M 6.09375 -9.84375 "/></g></g></g><g fill="#008455" fill-opacity="1"><g transform="translate(98.544673, 334.903544)"><g><path d="M -2.140625 0 L 4.921875 -30.640625 L 11.234375 -30.640625 L 10.65625 -15.984375 L 14.046875 -30.640625 L 19.96875 -30.640625 L 12.90625 0 L 6.921875 0 L 7.375 -15.34375 L 3.84375 0 Z M -2.140625 0 "/></g></g></g><g fill="#008455" fill-opacity="1"><g transform="translate(118.089519, 334.903544)"><g><path d="M -2.4375 0 L 4.640625 -30.640625 L 10.546875 -30.640625 L 3.484375 0 Z M -2.4375 0 "/></g></g></g><g fill="#008455" fill-opacity="1"><g transform="translate(127.969516, 334.903544)"><g><path d="M -2.140625 0 L 4.921875 -30.640625 L 14.265625 -30.640625 L 12.515625 -11.953125 L 19.40625 -30.640625 L 28.8125 -30.640625 L 21.75 0 L 16.15625 0 L 21.25 -22.078125 L 12.625 0 L 7.125 0 L 8.484375 -22.078125 L 3.390625 0 Z M -2.140625 0 "/></g></g></g><g fill="#008455" fill-opacity="1"><g transform="translate(156.358961, 334.903544)"><g><path d="M -2.96875 0 L 7.0625 -30.640625 L 17.4375 -30.640625 L 13.296875 0 L 7.484375 0 L 8.203125 -4.953125 L 4.484375 -4.953125 L 2.984375 0 Z M 6.09375 -9.84375 L 8.875 -9.84375 L 11.09375 -25.4375 L 10.796875 -25.4375 Z M 6.09375 -9.84375 "/></g></g></g><g fill="#008455" fill-opacity="1"><g transform="translate(175.440181, 334.903544)"><g><path d="M -2.140625 0 L 4.921875 -30.640625 L 11.046875 -30.640625 L 5.203125 -5.203125 L 11.515625 -5.203125 L 10.3125 0 Z M -2.140625 0 "/></g></g></g><g fill="#008455" fill-opacity="1"><g transform="translate(191.383004, 334.903544)"><g><path d="M 4.921875 0.28125 C 2.679688 0.28125 1.050781 -0.414062 0.03125 -1.8125 C -0.988281 -3.21875 -1.210938 -5.144531 -0.640625 -7.59375 L 2.59375 -21.71875 C 3.3125 -24.769531 4.453125 -27.066406 6.015625 -28.609375 C 7.585938 -30.148438 9.671875 -30.921875 12.265625 -30.921875 C 14.523438 -30.921875 16.203125 -30.300781 17.296875 -29.0625 C 18.390625 -27.832031 18.660156 -26.050781 18.109375 -23.71875 L 16.90625 -18.4375 L 10.796875 -18.4375 L 11.875 -22.96875 C 12.0625 -23.851562 12.085938 -24.460938 11.953125 -24.796875 C 11.828125 -25.128906 11.503906 -25.296875 10.984375 -25.296875 C 10.429688 -25.296875 10.003906 -25.101562 9.703125 -24.71875 C 9.410156 -24.34375 9.179688 -23.785156 9.015625 -23.046875 L 5.453125 -7.671875 C 5.285156 -6.859375 5.269531 -6.265625 5.40625 -5.890625 C 5.550781 -5.523438 5.863281 -5.34375 6.34375 -5.34375 C 7.289062 -5.34375 7.945312 -6.117188 8.3125 -7.671875 L 9.59375 -13.203125 L 15.765625 -13.203125 L 14.4375 -7.421875 C 13.25 -2.285156 10.078125 0.28125 4.921875 0.28125 Z M 4.921875 0.28125 "/></g></g></g><g fill="#008455" fill-opacity="1"><g transform="translate(210.071927, 334.903544)"><g><path d="M -2.140625 0 L 4.921875 -30.640625 L 17.1875 -30.640625 L 15.828125 -24.71875 L 9.8125 -24.71875 L 8.421875 -18.765625 L 14.1875 -18.765625 L 12.875 -12.984375 L 7.09375 -12.984375 L 5.453125 -5.953125 L 11.875 -5.953125 L 10.515625 0 Z M -2.140625 0 "/></g></g></g><g fill="#008455" fill-opacity="1"><g transform="translate(226.549705, 334.903544)"><g><path d="M -2.140625 0 L 4.921875 -30.640625 L 11.234375 -30.640625 L 10.65625 -15.984375 L 14.046875 -30.640625 L 19.96875 -30.640625 L 12.90625 0 L 6.921875 0 L 7.375 -15.34375 L 3.84375 0 Z M -2.140625 0 "/></g></g></g><g fill="#008455" fill-opacity="1"><g transform="translate(246.094551, 334.903544)"><g><path d="M 0.46875 0 L 6.171875 -24.75 L 2.53125 -24.75 L 3.890625 -30.640625 L 17.296875 -30.640625 L 15.953125 -24.75 L 12.3125 -24.75 L 6.59375 0 Z M 0.46875 0 "/></g></g></g><g fill="#008455" fill-opacity="1"><g transform="translate(262.001719, 334.903544)"><g><path d="M 4.921875 -30.640625 L 14.328125 -30.640625 C 15.828125 -30.640625 16.910156 -30.300781 17.578125 -29.625 C 18.242188 -28.945312 18.578125 -27.992188 18.578125 -26.765625 C 18.578125 -25.546875 18.363281 -23.984375 17.9375 -22.078125 C 17.53125 -20.347656 16.988281 -18.992188 16.3125 -18.015625 C 15.632812 -17.035156 14.691406 -16.359375 13.484375 -15.984375 C 14.359375 -15.796875 14.921875 -15.332031 15.171875 -14.59375 C 15.421875 -13.851562 15.40625 -12.851562 15.125 -11.59375 L 12.375 0 L 6.375 0 L 9.125 -11.984375 C 9.34375 -12.835938 9.304688 -13.382812 9.015625 -13.625 C 8.734375 -13.863281 8.148438 -13.984375 7.265625 -13.984375 L 4.0625 0 L -2.140625 0 Z M 10.015625 -19.296875 C 10.867188 -19.296875 11.515625 -20.222656 11.953125 -22.078125 C 12.140625 -22.890625 12.238281 -23.492188 12.25 -23.890625 C 12.257812 -24.296875 12.1875 -24.578125 12.03125 -24.734375 C 11.875 -24.890625 11.617188 -24.96875 11.265625 -24.96875 L 9.84375 -24.96875 L 8.5625 -19.296875 Z M 10.015625 -19.296875 "/></g></g></g><g fill="#008455" fill-opacity="1"><g transform="translate(280.797643, 334.903544)"><g><path d="M -2.140625 0 L 4.921875 -30.640625 L 17.1875 -30.640625 L 15.828125 -24.71875 L 9.8125 -24.71875 L 8.421875 -18.765625 L 14.1875 -18.765625 L 12.875 -12.984375 L 7.09375 -12.984375 L 5.453125 -5.953125 L 11.875 -5.953125 L 10.515625 0 Z M -2.140625 0 "/></g></g></g></svg>